<svg width="60" height="56" viewBox="0 0 60 56" fill="none" xmlns="http://www.w3.org/2000/svg">
<rect width="60" height="56" fill="#1E1E1E"/>
<g id="Aident PPT &#194;&#183; Components &#38; Templates">
<path d="M-5436 -8008C-5436 -8009.1 -5435.1 -8010 -5434 -8010H5062C5063.1 -8010 5064 -8009.1 5064 -8008V85988C5064 85989.1 5063.1 85990 5062 85990H-5434C-5435.1 85990 -5436 85989.1 -5436 85988V-8008Z" fill="#989898"/>
<path d="M-5434 -8010V-8009H5062V-8010V-8011H-5434V-8010ZM5064 -8008H5063V85988H5064H5065V-8008H5064ZM5062 85990V85989H-5434V85990V85991H5062V85990ZM-5436 85988H-5435V-8008H-5436H-5437V85988H-5436ZM-5434 85990V85989C-5434.55 85989 -5435 85988.6 -5435 85988H-5436H-5437C-5437 85989.7 -5435.66 85991 -5434 85991V85990ZM5064 85988H5063C5063 85988.6 5062.55 85989 5062 85989V85990V85991C5063.66 85991 5065 85989.7 5065 85988H5064ZM5062 -8010V-8009C5062.55 -8009 5063 -8008.55 5063 -8008H5064H5065C5065 -8009.66 5063.66 -8011 5062 -8011V-8010ZM-5434 -8010V-8011C-5435.66 -8011 -5437 -8009.66 -5437 -8008H-5436H-5435C-5435 -8008.55 -5434.55 -8009 -5434 -8009V-8010Z" fill="white" fill-opacity="0.1"/>
<g id="PPT/Icon">
<g clip-path="url(#clip0_0_1)">
<rect x="-636" y="-100" width="1014" height="156" rx="5" fill="url(#paint0_linear_0_1)"/>
<g id="Name=Key, Theme=Dark">
<rect width="60" height="60" rx="12" fill="white" fill-opacity="0.08"/>
<g id="Aident DS / Key">
<g id="Key">
<path id="Icon" d="M42.0004 16.6667L39.3337 19.3334M39.3337 19.3334L43.3337 23.3334L38.667 28L34.667 24M39.3337 19.3334L34.667 24M29.187 29.48C29.8755 30.1593 30.4228 30.9681 30.7974 31.8597C31.172 32.7514 31.3665 33.7084 31.3697 34.6755C31.373 35.6427 31.1849 36.6009 30.8163 37.4951C30.4476 38.3892 29.9058 39.2017 29.2219 39.8855C28.538 40.5694 27.7256 41.1113 26.8314 41.4799C25.9373 41.8485 24.979 42.0366 24.0119 42.0334C23.0447 42.0301 22.0878 41.8356 21.1961 41.461C20.3044 41.0864 19.4957 40.5391 18.8164 39.8507C17.4805 38.4676 16.7414 36.6152 16.7581 34.6924C16.7748 32.7696 17.546 30.9303 18.9057 29.5707C20.2654 28.211 22.1046 27.4398 24.0274 27.4231C25.9502 27.4064 27.8026 28.1455 29.1857 29.4814L29.187 29.48ZM29.187 29.48L34.667 24" stroke="url(#paint1_linear_0_1)" stroke-width="2" stroke-linecap="round" stroke-linejoin="round"/>
</g>
</g>
</g>
</g>
</g>
</g>
<defs>
<linearGradient id="paint0_linear_0_1" x1="-129" y1="-100" x2="-129" y2="56" gradientUnits="userSpaceOnUse">
<stop stop-color="#F7F8F6"/>
<stop offset="0.499" stop-color="#F7F8F6"/>
<stop offset="0.501" stop-color="#0F091D"/>
<stop offset="1" stop-color="#0F091D"/>
</linearGradient>
<linearGradient id="paint1_linear_0_1" x1="43.3337" y1="29.3501" x2="16.7578" y2="29.3501" gradientUnits="userSpaceOnUse">
<stop stop-color="#F3B6FF"/>
<stop offset="0.509615" stop-color="#6DE4F9"/>
<stop offset="1" stop-color="#77FAB4"/>
</linearGradient>
<clipPath id="clip0_0_1">
<rect x="-636" y="-100" width="1014" height="156" rx="5" fill="white"/>
</clipPath>
</defs>
</svg>
